<?xml version="1.0" standalone="no"?>
<!DOCTYPE svg PUBLIC "-//W3C//DTD SVG 20010904//EN"
 "http://www.w3.org/TR/2001/REC-SVG-20010904/DTD/svg10.dtd">
<svg version="1.0" xmlns="http://www.w3.org/2000/svg"
 width="512.000000pt" height="512.000000pt" viewBox="0 0 512.000000 512.000000"
 preserveAspectRatio="xMidYMid meet">
<metadata>
Created by potrace 1.14, written by Peter Selinger 2001-2017
</metadata>
<g transform="translate(0.000000,512.000000) scale(0.100000,-0.100000)"
fill="#000000" stroke="none">
<path d="M1298 4925 c-2 -2 -25 -5 -53 -8 -215 -20 -451 -158 -592 -347 -62
-83 -129 -226 -147 -312 -3 -13 -8 -34 -12 -48 -4 -14 -9 -155 -11 -315 -4
-286 -4 -291 -29 -337 -40 -77 -53 -134 -50 -221 3 -66 10 -90 40 -152 l36
-72 1 -699 c1 -826 2 -750 -13 -752 -7 0 -47 -10 -88 -21 -88 -24 -144 -60
-185 -121 l-30 -45 -3 -610 c-2 -335 0 -625 3 -642 12 -68 -180 -63 2395 -63
2491 0 2376 -2 2394 45 3 9 6 387 6 839 0 913 2 889 -65 957 -76 79 -5 74
-981 77 l-872 2 -1 519 -1 518 25 45 c40 72 54 133 50 217 -4 83 -16 126 -51
183 -23 36 -23 43 -25 310 -1 187 -5 294 -15 338 -59 284 -228 504 -479 625
-160 78 -328 106 -498 83 -91 -11 -136 -17 -192 -25 -65 -9 -126 -9 -195 1
-30 4 -66 9 -80 11 -14 1 -50 6 -80 10 -60 8 -197 15 -202 10z m1097 -1111
l247 -176 -4 -326 c-5 -350 -9 -384 -62 -521 -58 -147 -189 -309 -322 -399
-191 -128 -419 -177 -647 -137 -280 49 -526 238 -644 495 -71 156 -81 225 -82
582 l-2 286 33 11 c18 5 134 40 258 76 124 36 248 72 275 81 233 70 682 202
692 203 6 1 122 -78 258 -175z m-1675 -455 l0 -220 -22 6 c-40 11 -114 99
-127 149 -19 78 -11 130 32 201 20 32 84 84 105 85 9 0 12 -51 12 -221z m2133
199 c69 -49 107 -124 107 -207 0 -44 -32 -117 -68 -154 -24 -26 -72 -57 -87
-57 -3 0 -5 99 -5 220 0 153 3 220 11 220 6 0 25 -10 42 -22z m-1246 -1467
c51 -11 291 -6 350 7 l42 9 3 -153 c2 -122 6 -157 18 -169 9 -8 97 -37 195
-63 l180 -49 3 -99 3 -99 -69 -42 c-87 -54 -185 -95 -298 -124 -121 -31 -348
-35 -491 -9 -184 33 -344 105 -446 199 -54 50 -114 128 -105 136 3 4 292 82
416 113 35 9 75 26 88 39 23 21 24 26 24 173 l0 150 23 -5 c12 -3 41 -9 64
-14z m3152 -186 c16 -8 31 -25 35 -37 3 -13 6 -366 6 -785 l0 -763 -1120 0
-1120 0 2 781 3 780 25 19 c24 19 55 20 1083 20 908 0 1062 -2 1086 -15z
m-2359 -1505 l0 -81 -380 3 c-437 3 -411 -3 -418 98 l-4 60 401 0 401 0 0 -80z"/>
<path d="M1215 3433 c-64 -15 -139 -90 -163 -162 -24 -68 -21 -71 67 -71 76 0
79 1 85 25 4 16 20 32 40 42 45 21 86 8 105 -35 l15 -32 78 0 c88 0 86 -2 63
77 -34 113 -168 185 -290 156z"/>
<path d="M2164 3427 c-83 -31 -147 -106 -160 -185 l-7 -42 80 0 79 0 17 35
c29 60 109 58 136 -3 l15 -32 78 0 c88 0 86 -2 63 77 -35 119 -185 194 -301
150z"/>
<path d="M1520 2704 c0 -42 27 -100 68 -145 133 -148 370 -76 407 124 l7 37
-79 0 -79 0 -17 -35 c-29 -60 -109 -58 -136 3 l-15 32 -78 0 c-65 0 -78 -3
-78 -16z"/>
<path d="M3626 1270 c-67 -20 -113 -96 -102 -170 12 -84 70 -134 157 -135 49
0 62 4 96 31 48 39 68 88 59 149 -15 99 -109 155 -210 125z"/>
<path d="M2800 560 l0 -80 80 0 80 0 0 80 0 80 -80 0 -80 0 0 -80z"/>
<path d="M3120 560 l0 -80 80 0 80 0 0 80 0 80 -80 0 -80 0 0 -80z"/>
<path d="M3440 560 l0 -80 80 0 80 0 0 80 0 80 -80 0 -80 0 0 -80z"/>
<path d="M3760 560 l0 -80 80 0 80 0 0 80 0 80 -80 0 -80 0 0 -80z"/>
<path d="M4080 560 l0 -80 80 0 80 0 0 80 0 80 -80 0 -80 0 0 -80z"/>
<path d="M4400 560 l0 -80 80 0 80 0 0 80 0 80 -80 0 -80 0 0 -80z"/>
</g>
</svg>
